P2
2 3
4096
3 4
5 6
7 8